ISO-10303-21;
HEADER;
FILE_DESCRIPTION (( 'STEP AP214' ),
    '1' );
FILE_NAME ('CAD_Spacecraft_Primary_Structure.STEP',
    '2026-09-28T17:03:50',
    ( '' ),
    ( '' ),
    'SwSTEP 2.0',
    'SolidWorks 2026',
    '' );
FILE_SCHEMA (( 'AUTOMOTIVE_DESIGN' ));
ENDSEC;

DATA;
#1 = CARTESIAN_POINT ( 'NONE',  ( -17.49999999999999289, 17.49999999999999645, 900.0000000000000000 ) ) ;
#2 = ADVANCED_FACE ( 'NONE', ( #106 ), #748, .F. ) ;
#3 = PRODUCT_DEFINITION_SHAPE ( 'NONE', 'NONE',  #773 ) ;
#4 = SURFACE_SIDE_STYLE ('',( #321 ) ) ;
#5 = CARTESIAN_POINT ( 'NONE',  ( 17.50000000000001066, 17.49999999999999645, 0.000000000000000000 ) ) ;
#6 = CARTESIAN_POINT ( 'NONE',  ( -349.9999999999998295, 6.000000000000000000, 350.0000000000000000 ) ) ;
#7 = CARTESIAN_POINT ( 'NONE',  ( 350.0000000000000568, 6.000000000000000000, -350.0000000000000000 ) ) ;
#8 = ORIENTED_EDGE ( 'NONE', *, *, #385, .F. ) ;
#9 = FILL_AREA_STYLE ('',( #492 ) ) ;
#10 = ORIENTED_EDGE ( 'NONE', *, *, #85, .T. ) ;
#11 = EDGE_CURVE ( 'NONE', #319, #33, #756, .T. ) ;
#12 = ITEM_DEFINED_TRANSFORMATION ( 'NONE', 'NONE', #747,  #422 ) ;
#13 = VECTOR ( 'NONE', #339, 1000.000000000000000 ) ;
#14 = AXIS2_PLACEMENT_3D ( 'NONE', #443, #688, #565 ) ;
#15 = DIRECTION ( 'NONE',  ( -0.000000000000000000, -1.000000000000000000, -0.000000000000000000 ) ) ;
#16 = VERTEX_POINT ( 'NONE', #167 ) ;
#17 = PRODUCT_RELATED_PRODUCT_CATEGORY ( 'part', '', ( #610 ) ) ;
#18 = CARTESIAN_POINT ( 'NONE',  ( -15.50000000000000000, 15.50000000000000355, 900.0000000000000000 ) ) ;
#19 = EDGE_LOOP ( 'NONE', ( #462, #583, #612, #624 ) ) ;
#20 = CARTESIAN_POINT ( 'NONE',  ( 15.50000000000000000, 15.50000000000000355, 900.0000000000000000 ) ) ;
#21 = PLANE ( 'NONE',  #511 ) ;
#22 = CARTESIAN_POINT ( 'NONE',  ( 15.50000000000000000, 15.50000000000000355, 900.0000000000000000 ) ) ;
#23 = ORIENTED_EDGE ( 'NONE', *, *, #605, .T. ) ;
#24 = CARTESIAN_POINT ( 'NONE',  ( -349.9999999999999432, 0.000000000000000000, -350.0000000000000000 ) ) ;
#25 = DIRECTION ( 'NONE',  ( -1.586032892321652236E-16, 0.000000000000000000, -1.000000000000000000 ) ) ;
#26 = EDGE_LOOP ( 'NONE', ( #192, #609, #432, #201 ) ) ;
#27 = AXIS2_PLACEMENT_3D ( 'NONE', #262, #730, #79 ) ;
#28 = DIRECTION ( 'NONE',  ( 1.586032892321652236E-16, 0.000000000000000000, 1.000000000000000000 ) ) ;
#29 = SURFACE_STYLE_FILL_AREA ( #96 ) ;
#30 = CARTESIAN_POINT ( 'NONE',  ( -17.49999999999999289, 17.49999999999999645, 900.0000000000000000 ) ) ;
#31 = DIRECTION ( 'NONE',  ( -1.586032892321652236E-16, -0.000000000000000000, -1.000000000000000000 ) ) ;
#32 = FACE_OUTER_BOUND ( 'NONE', #493, .T. ) ;
#33 = VERTEX_POINT ( 'NONE', #291 ) ;
#34 = LINE ( 'NONE', #518, #534 ) ;
#35 = LINE ( 'NONE', #454, #769 ) ;
#36 = ORIENTED_EDGE ( 'NONE', *, *, #336, .T. ) ;
#37 = AXIS2_PLACEMENT_3D ( 'NONE', #757, #44, #531 ) ;
#38 = VECTOR ( 'NONE', #460, 1000.000000000000000 ) ;
#39 = DIRECTION ( 'NONE',  ( 1.000000000000000000, 0.000000000000000000, 0.000000000000000000 ) ) ;
#40 = PRODUCT_DEFINITION ( 'UNKNOWN', '', #198, #252 ) ;
#41 = DIRECTION ( 'NONE',  ( 0.000000000000000000, -0.000000000000000000, -1.000000000000000000 ) ) ;
#42 = DIRECTION ( 'NONE',  ( 0.000000000000000000, 1.000000000000000000, 0.000000000000000000 ) ) ;
#43 = AXIS2_PLACEMENT_3D ( 'NONE', #240, #351, #596 ) ;
#44 = DIRECTION ( 'NONE',  ( 0.000000000000000000, 1.000000000000000000, 0.000000000000000000 ) ) ;
#45 =( NAMED_UNIT ( * ) PLANE_ANGLE_UNIT ( ) SI_UNIT ( $, .RADIAN. ) );
#46 = ORIENTED_EDGE ( 'NONE', *, *, #134, .F. ) ;
#47 = DIRECTION ( 'NONE',  ( 2.238352872228138663E-16, -1.000000000000000000, 0.000000000000000000 ) ) ;
#48 = EDGE_CURVE ( 'NONE', #445, #451, #623, .T. ) ;
#49 = ORIENTED_EDGE ( 'NONE', *, *, #11, .F. ) ;
#50 = VECTOR ( 'NONE', #28, 1000.000000000000000 ) ;
#51 = VECTOR ( 'NONE', #87, 1000.000000000000000 ) ;
#52 = CARTESIAN_POINT ( 'NONE',  ( -17.49999999999998934, -17.50000000000000711, 0.000000000000000000 ) ) ;
#53 = ORIENTED_EDGE ( 'NONE', *, *, #130, .T. ) ;
#54 = VERTEX_POINT ( 'NONE', #759 ) ;
#55 =( LENGTH_UNIT ( ) NAMED_UNIT ( * ) SI_UNIT ( .MILLI., .METRE. ) );
#56 = PLANE ( 'NONE',  #97 ) ;
#57 = EDGE_LOOP ( 'NONE', ( #613, #271, #244, #118 ) ) ;
#58 = PRODUCT_DEFINITION_SHAPE ( 'NONE', 'NONE',  #626 ) ;
#59 = EDGE_CURVE ( 'NONE', #16, #54, #235, .T. ) ;
#60 = CONTEXT_DEPENDENT_SHAPE_REPRESENTATION ( #205, #424 ) ;
#61 = FACE_OUTER_BOUND ( 'NONE', #341, .T. ) ;
#62 = AXIS2_PLACEMENT_3D ( 'NONE', #86, #223, #568 ) ;
#63 = VECTOR ( 'NONE', #224, 1000.000000000000000 ) ;
#64 = EDGE_CURVE ( 'NONE', #375, #246, #88, .T. ) ;
#65 = PRODUCT_DEFINITION_SHAPE ( 'NONE', 'NONE',  #40 ) ;
#66 = DIRECTION ( 'NONE',  ( -2.238352872228138663E-16, 1.000000000000000000, 0.000000000000000000 ) ) ;
#67 = VERTEX_POINT ( 'NONE', #508 ) ;
#68 = LINE ( 'NONE', #695, #63 ) ;
#69 = UNCERTAINTY_MEASURE_WITH_UNIT (LENGTH_MEASURE( 1.000000000000000082E-05 ), #55, 'distance_accuracy_value', 'NONE');
#70 = DIRECTION ( 'NONE',  ( 0.000000000000000000, -0.000000000000000000, 1.000000000000000000 ) ) ;
#71 = ORIENTED_EDGE ( 'NONE', *, *, #507, .T. ) ;
#72 = CONTEXT_DEPENDENT_SHAPE_REPRESENTATION ( #672, #307 ) ;
#73 =( NAMED_UNIT ( * ) PLANE_ANGLE_UNIT ( ) SI_UNIT ( $, .RADIAN. ) );
#74 = ADVANCED_FACE ( 'NONE', ( #337 ), #576, .F. ) ;
#75 = ORIENTED_EDGE ( 'NONE', *, *, #362, .T. ) ;
#76 = LINE ( 'NONE', #366, #345 ) ;
#77 = VECTOR ( 'NONE', #647, 1000.000000000000000 ) ;
#78 = VECTOR ( 'NONE', #550, 1000.000000000000000 ) ;
#79 = DIRECTION ( 'NONE',  ( -9.912705577010325549E-17, 1.000000000000000000, 0.000000000000000000 ) ) ;
#80 = ORIENTED_EDGE ( 'NONE', *, *, #487, .T. ) ;
#81 = APPLICATION_CONTEXT ( 'automotive_design' ) ;
#82 = SHAPE_DEFINITION_REPRESENTATION ( #58, #174 ) ;
#83 = PRODUCT_DEFINITION ( 'UNKNOWN', '', #528, #666 ) ;
#84 = PRODUCT_DEFINITION_SHAPE ( 'NONE', 'NONE',  #770 ) ;
#85 = EDGE_CURVE ( 'NONE', #322, #619, #603, .T. ) ;
#86 = CARTESIAN_POINT ( 'NONE',  ( -349.9999999999998295, 6.000000000000000000, 350.0000000000000000 ) ) ;
#87 = DIRECTION ( 'NONE',  ( 9.912705577010325549E-17, -1.000000000000000000, 0.000000000000000000 ) ) ;
#88 = LINE ( 'NONE', #22, #471 ) ;
#89 = EDGE_LOOP ( 'NONE', ( #491, #312, #754, #36 ) ) ;
#90 = DIRECTION ( 'NONE',  ( -1.000000000000000000, -0.000000000000000000, -0.000000000000000000 ) ) ;
#91 = CARTESIAN_POINT ( 'NONE',  ( -349.9999999999998295, 6.000000000000000000, 350.0000000000000000 ) ) ;
#92 = ADVANCED_FACE ( 'NONE', ( #409 ), #56, .F. ) ;
#93 = ORIENTED_EDGE ( 'NONE', *, *, #59, .F. ) ;
#94 = VERTEX_POINT ( 'NONE', #652 ) ;
#95 =( LENGTH_UNIT ( ) NAMED_UNIT ( * ) SI_UNIT ( .MILLI., .METRE. ) );
#96 = FILL_AREA_STYLE ('',( #633 ) ) ;
#97 = AXIS2_PLACEMENT_3D ( 'NONE', #181, #468, #306 ) ;
#98 = DIRECTION ( 'NONE',  ( -1.586032892321652236E-16, -0.000000000000000000, -1.000000000000000000 ) ) ;
#99 = MECHANICAL_DESIGN_GEOMETRIC_PRESENTATION_REPRESENTATION (  '', ( #261 ), #211 ) ;
#100 = ITEM_DEFINED_TRANSFORMATION ( 'NONE', 'NONE', #434,  #422 ) ;
#101 = SURFACE_STYLE_FILL_AREA ( #267 ) ;
#102 = PLANE ( 'NONE',  #706 ) ;
#103 = VERTEX_POINT ( 'NONE', #114 ) ;
#104 = LINE ( 'NONE', #179, #543 ) ;
#105 = FACE_OUTER_BOUND ( 'NONE', #597, .T. ) ;
#106 = FACE_OUTER_BOUND ( 'NONE', #361, .T. ) ;
#107 = APPLICATION_PROTOCOL_DEFINITION ( 'draft international standard', 'automotive_design', 1998, #81 ) ;
#108 = EDGE_CURVE ( 'NONE', #450, #103, #546, .T. ) ;
#109 = CARTESIAN_POINT ( 'NONE',  ( -17.49999999999998934, -17.50000000000000711, 900.0000000000000000 ) ) ;
#110 =( NAMED_UNIT ( * ) SI_UNIT ( $, .STERADIAN. ) SOLID_ANGLE_UNIT ( ) );
#111 = AXIS2_PLACEMENT_3D ( 'NONE', #569, #157, #153 ) ;
#112 = LINE ( 'NONE', #585, #13 ) ;
#113 = EDGE_CURVE ( 'NONE', #619, #16, #209, .T. ) ;
#114 = CARTESIAN_POINT ( 'NONE',  ( 17.50000000000001066, 17.49999999999999645, 0.000000000000000000 ) ) ;
#115 = DIRECTION ( 'NONE',  ( 1.586032892321652236E-16, 0.000000000000000000, 1.000000000000000000 ) ) ;
#116 = ADVANCED_FACE ( 'NONE', ( #380 ), #448, .F. ) ;
#117 =( LENGTH_UNIT ( ) NAMED_UNIT ( * ) SI_UNIT ( .MILLI., .METRE. ) );
#118 = ORIENTED_EDGE ( 'NONE', *, *, #194, .F. ) ;
#119 = CARTESIAN_POINT ( 'NONE',  ( 350.0000000000000568, 6.000000000000000000, -350.0000000000000000 ) ) ;
#120 = CARTESIAN_POINT ( 'NONE',  ( 15.50000000000000000, 15.50000000000000355, 0.000000000000000000 ) ) ;
#121 = DIRECTION ( 'NONE',  ( 1.000000000000000000, 0.000000000000000000, 0.000000000000000000 ) ) ;
#122 =( GEOMETRIC_REPRESENTATION_CONTEXT ( 3 ) GLOBAL_UNCERTAINTY_ASSIGNED_CONTEXT ( ( #139 ) ) GLOBAL_UNIT_ASSIGNED_CONTEXT ( ( #95, #199, #217 ) ) REPRESENTATION_CONTEXT ( 'NONE', 'WORKASPACE' ) );
#123 = COLOUR_RGB ( '',0.7921568627450980005, 0.8196078431372548767, 0.9333333333333333481 ) ;
#124 = SHAPE_REPRESENTATION_RELATIONSHIP ( 'NONE' , 'NONE' ,  #629, #763 ) ;
#125 = UNCERTAINTY_MEASURE_WITH_UNIT (LENGTH_MEASURE( 1.000000000000000082E-05 ), #279, 'distance_accuracy_value', 'NONE');
#126 = SHAPE_REPRESENTATION_RELATIONSHIP ( 'NONE' , 'NONE' ,  #412, #625 ) ;
#127 = ORIENTED_EDGE ( 'NONE', *, *, #233, .T. ) ;
#128 =( REPRESENTATION_RELATIONSHIP ('NONE','NONE', #574, #412 ) REPRESENTATION_RELATIONSHIP_WITH_TRANSFORMATION ( #709 )SHAPE_REPRESENTATION_RELATIONSHIP( ) );
#129 = ORIENTED_EDGE ( 'NONE', *, *, #172, .T. ) ;
#130 = EDGE_CURVE ( 'NONE', #54, #322, #614, .T. ) ;
#131 = PLANE ( 'NONE',  #768 ) ;
#132 = ORIENTED_EDGE ( 'NONE', *, *, #293, .T. ) ;
#133 = MANIFOLD_SOLID_BREP ( 'Boss-Extrude1', #344 ) ;
#134 = EDGE_CURVE ( 'NONE', #683, #225, #395, .T. ) ;
#135 = APPLICATION_CONTEXT ( 'automotive_design' ) ;
#136 = LINE ( 'NONE', #324, #301 ) ;
#137 = ORIENTED_EDGE ( 'NONE', *, *, #403, .T. ) ;
#138 = FACE_OUTER_BOUND ( 'NONE', #397, .T. ) ;
#139 = UNCERTAINTY_MEASURE_WITH_UNIT (LENGTH_MEASURE( 1.000000000000000082E-05 ), #95, 'distance_accuracy_value', 'NONE');
#140 = DIRECTION ( 'NONE',  ( -9.912705577010325549E-17, 1.000000000000000000, -0.000000000000000000 ) ) ;
#141 = ORIENTED_EDGE ( 'NONE', *, *, #541, .T. ) ;
#142 = FILL_AREA_STYLE_COLOUR ( '', #170 ) ;
#143 = PLANE ( 'NONE',  #27 ) ;
#144 = VERTEX_POINT ( 'NONE', #741 ) ;
#145 = AXIS2_PLACEMENT_3D ( 'NONE', #338, #579, #219 ) ;
#146 = CARTESIAN_POINT ( 'NONE',  ( 15.50000000000000711, -15.49999999999999289, 0.000000000000000000 ) ) ;
#147 = CARTESIAN_POINT ( 'NONE',  ( -17.49999999999998934, -17.50000000000000711, 900.0000000000000000 ) ) ;
#148 = AXIS2_PLACEMENT_3D ( 'NONE', #435, #611, #70 ) ;
#149 = ORIENTED_EDGE ( 'NONE', *, *, #256, .T. ) ;
#150 = APPLICATION_PROTOCOL_DEFINITION ( 'draft international standard', 'automotive_design', 1998, #418 ) ;
#151 = ADVANCED_FACE ( 'NONE', ( #333 ), #564, .T. ) ;
#152 = CARTESIAN_POINT ( 'NONE',  ( -17.49999999999998934, -17.50000000000000711, 0.000000000000000000 ) ) ;
#153 = DIRECTION ( 'NONE',  ( 1.000000000000000000, 0.000000000000000000, -0.000000000000000000 ) ) ;
#154 = ORIENTED_EDGE ( 'NONE', *, *, #507, .F. ) ;
#155 = EDGE_LOOP ( 'NONE', ( #631, #388, #745, #663 ) ) ;
#156 = LINE ( 'NONE', #632, #50 ) ;
#157 = DIRECTION ( 'NONE',  ( 0.000000000000000000, 0.000000000000000000, 1.000000000000000000 ) ) ;
#158 = VERTEX_POINT ( 'NONE', #152 ) ;
#159 = LINE ( 'NONE', #627, #484 ) ;
#160 = ORIENTED_EDGE ( 'NONE', *, *, #348, .F. ) ;
#161 = LINE ( 'NONE', #347, #289 ) ;
#162 = DIRECTION ( 'NONE',  ( -1.000000000000000000, -9.912705577010325549E-17, 0.000000000000000000 ) ) ;
#163 = EDGE_CURVE ( 'NONE', #33, #539, #453, .T. ) ;
#164 = EDGE_LOOP ( 'NONE', ( #10, #604, #594, #266 ) ) ;
#165 = ITEM_DEFINED_TRANSFORMATION ( 'NONE', 'NONE', #537,  #422 ) ;
#166 = LINE ( 'NONE', #715, #251 ) ;
#167 = CARTESIAN_POINT ( 'NONE',  ( 350.0000000000001705, 0.000000000000000000, 350.0000000000000000 ) ) ;
#168 = CARTESIAN_POINT ( 'NONE',  ( -17.49999999999999289, 17.49999999999999645, 0.000000000000000000 ) ) ;
#169 = DIRECTION ( 'NONE',  ( 1.000000000000000000, 0.000000000000000000, 0.000000000000000000 ) ) ;
#170 = COLOUR_RGB ( '',0.7921568627450980005, 0.8196078431372548767, 0.9333333333333333481 ) ;
#171 = AXIS2_PLACEMENT_3D ( 'NONE', #387, #331, #25 ) ;
#172 = EDGE_CURVE ( 'NONE', #479, #644, #159, .T. ) ;
#173 = DIRECTION ( 'NONE',  ( -2.238352872228138663E-16, 1.000000000000000000, -0.000000000000000000 ) ) ;
#174 = SHAPE_REPRESENTATION ( 'CAD_Top_Plate_700x700x6', ( #422 ), #243 ) ;
#175 = AXIS2_PLACEMENT_3D ( 'NONE', #294, #561, #169 ) ;
#176 = DIRECTION ( 'NONE',  ( 0.000000000000000000, 1.000000000000000000, 0.000000000000000000 ) ) ;
#177 = ORIENTED_EDGE ( 'NONE', *, *, #163, .T. ) ;
#178 = APPLICATION_CONTEXT ( 'automotive_design' ) ;
#179 = CARTESIAN_POINT ( 'NONE',  ( -15.50000000000000000, 15.50000000000000355, 0.000000000000000000 ) ) ;
#180 = CARTESIAN_POINT ( 'NONE',  ( 0.000000000000000000, 0.000000000000000000, 0.000000000000000000 ) ) ;
#181 = CARTESIAN_POINT ( 'NONE',  ( -17.49999999999998934, -17.50000000000000711, 900.0000000000000000 ) ) ;
#182 = ORIENTED_EDGE ( 'NONE', *, *, #465, .T. ) ;
#183 = DIRECTION ( 'NONE',  ( 1.000000000000000000, 0.000000000000000000, 0.000000000000000000 ) ) ;
#184 = ORIENTED_EDGE ( 'NONE', *, *, #355, .F. ) ;
#185 = DIRECTION ( 'NONE',  ( 0.000000000000000000, 1.000000000000000000, 0.000000000000000000 ) ) ;
#186 = UNCERTAINTY_MEASURE_WITH_UNIT (LENGTH_MEASURE( 1.000000000000000082E-05 ), #320, 'distance_accuracy_value', 'NONE');
#187 = ORIENTED_EDGE ( 'NONE', *, *, #374, .F. ) ;
#188 = DIRECTION ( 'NONE',  ( 0.000000000000000000, 0.000000000000000000, 1.000000000000000000 ) ) ;
#189 = PRODUCT_DEFINITION ( 'UNKNOWN', '', #732, #421 ) ;
#190 = CARTESIAN_POINT ( 'NONE',  ( 15.50000000000000711, -15.49999999999999289, 900.0000000000000000 ) ) ;
#191 = DIRECTION ( 'NONE',  ( 1.000000000000000000, 0.000000000000000000, 0.000000000000000000 ) ) ;
#192 = ORIENTED_EDGE ( 'NONE', *, *, #762, .T. ) ;
#193 = MECHANICAL_DESIGN_GEOMETRIC_PRESENTATION_REPRESENTATION (  '', ( #714 ), #122 ) ;
#194 = EDGE_CURVE ( 'NONE', #669, #445, #501, .T. ) ;
#195 =( GEOMETRIC_REPRESENTATION_CONTEXT ( 3 ) GLOBAL_UNCERTAINTY_ASSIGNED_CONTEXT ( ( #674 ) ) GLOBAL_UNIT_ASSIGNED_CONTEXT ( ( #682, #73, #498 ) ) REPRESENTATION_CONTEXT ( 'NONE', 'WORKASPACE' ) );
#196 = CARTESIAN_POINT ( 'NONE',  ( -15.50000000000000000, 15.50000000000000355, 900.0000000000000000 ) ) ;
#197 = VERTEX_POINT ( 'NONE', #146 ) ;
#198 = PRODUCT_DEFINITION_FORMATION_WITH_SPECIFIED_SOURCE ( 'ANY', '', #481, .NOT_KNOWN. ) ;
#199 =( NAMED_UNIT ( * ) PLANE_ANGLE_UNIT ( ) SI_UNIT ( $, .RADIAN. ) );
#200 = SURFACE_STYLE_USAGE ( .BOTH. , #4 ) ;
#201 = ORIENTED_EDGE ( 'NONE', *, *, #359, .T. ) ;
#202 = FACE_OUTER_BOUND ( 'NONE', #659, .T. ) ;
#203 = SURFACE_STYLE_USAGE ( .BOTH. , #753 ) ;
#204 = PRODUCT_DEFINITION_SHAPE ( 'NONE', 'NONE',  #83 ) ;
#205 =( REPRESENTATION_RELATIONSHIP ('NONE','NONE', #574, #412 ) REPRESENTATION_RELATIONSHIP_WITH_TRANSFORMATION ( #12 )SHAPE_REPRESENTATION_RELATIONSHIP( ) );
#206 = EDGE_CURVE ( 'NONE', #67, #683, #273, .T. ) ;
#207 = CARTESIAN_POINT ( 'NONE',  ( -349.9999999999998295, 6.000000000000000000, 350.0000000000000000 ) ) ;
#208 = EDGE_LOOP ( 'NONE', ( #545, #554, #263, #458 ) ) ;
#209 = LINE ( 'NONE', #327, #673 ) ;
#210 = PLANE ( 'NONE',  #171 ) ;
#211 =( GEOMETRIC_REPRESENTATION_CONTEXT ( 3 ) GLOBAL_UNCERTAINTY_ASSIGNED_CONTEXT ( ( #125 ) ) GLOBAL_UNIT_ASSIGNED_CONTEXT ( ( #279, #516, #582 ) ) REPRESENTATION_CONTEXT ( 'NONE', 'WORKASPACE' ) );
#212 = ORIENTED_EDGE ( 'NONE', *, *, #526, .T. ) ;
#213 = EDGE_CURVE ( 'NONE', #144, #365, #156, .T. ) ;
#214 = ORIENTED_EDGE ( 'NONE', *, *, #64, .F. ) ;
#215 = SHAPE_DEFINITION_REPRESENTATION ( #678, #412 ) ;
#216 = AXIS2_PLACEMENT_3D ( 'NONE', #587, #185, #602 ) ;
#217 =( NAMED_UNIT ( * ) SI_UNIT ( $, .STERADIAN. ) SOLID_ANGLE_UNIT ( ) );
#218 = CARTESIAN_POINT ( 'NONE',  ( -349.9999999999998295, 0.000000000000000000, 350.0000000000000000 ) ) ;
#219 = DIRECTION ( 'NONE',  ( 0.000000000000000000, -0.000000000000000000, 1.000000000000000000 ) ) ;
#220 = ITEM_DEFINED_TRANSFORMATION ( 'NONE', 'NONE', #43,  #422 ) ;
#221 = ADVANCED_FACE ( 'NONE', ( #202, #278 ), #515, .T. ) ;
#222 =( REPRESENTATION_RELATIONSHIP ('NONE','NONE', #574, #629 ) REPRESENTATION_RELATIONSHIP_WITH_TRANSFORMATION ( #165 )SHAPE_REPRESENTATION_RELATIONSHIP( ) );
#223 = DIRECTION ( 'NONE',  ( 0.000000000000000000, 0.000000000000000000, -1.000000000000000000 ) ) ;
#224 = DIRECTION ( 'NONE',  ( 1.586032892321652236E-16, 0.000000000000000000, 1.000000000000000000 ) ) ;
#225 = VERTEX_POINT ( 'NONE', #620 ) ;
#226 = LINE ( 'NONE', #459, #241 ) ;
#227 = EDGE_CURVE ( 'NONE', #332, #558, #437, .T. ) ;
#228 = VECTOR ( 'NONE', #183, 1000.000000000000000 ) ;
#229 = CARTESIAN_POINT ( 'NONE',  ( 350.0000000000001705, 6.000000000000000000, 350.0000000000000000 ) ) ;
#230 = VECTOR ( 'NONE', #239, 1000.000000000000000 ) ;
#231 = LINE ( 'NONE', #649, #705 ) ;
#232 = CARTESIAN_POINT ( 'NONE',  ( 17.50000000000001066, 17.49999999999999645, 900.0000000000000000 ) ) ;
#233 = EDGE_CURVE ( 'NONE', #158, #450, #416, .T. ) ;
#234 = EDGE_CURVE ( 'NONE', #67, #16, #231, .T. ) ;
#235 = LINE ( 'NONE', #466, #405 ) ;
#236 = CARTESIAN_POINT ( 'NONE',  ( -349.9999999999998295, 0.000000000000000000, 350.0000000000000000 ) ) ;
#237 = LINE ( 'NONE', #655, #230 ) ;
#238 = CARTESIAN_POINT ( 'NONE',  ( -349.9999999999999432, 0.000000000000000000, -350.0000000000000000 ) ) ;
#239 = DIRECTION ( 'NONE',  ( -0.000000000000000000, -1.000000000000000000, -0.000000000000000000 ) ) ;
#240 = CARTESIAN_POINT ( 'NONE',  ( 332.5000000000000000, 5.999999999999994671, -332.4999999999999432 ) ) ;
#241 = VECTOR ( 'NONE', #402, 1000.000000000000000 ) ;
#242 = CARTESIAN_POINT ( 'NONE',  ( 350.0000000000000568, 6.000000000000000000, -350.0000000000000000 ) ) ;
#243 =( GEOMETRIC_REPRESENTATION_CONTEXT ( 3 ) GLOBAL_UNCERTAINTY_ASSIGNED_CONTEXT ( ( #245 ) ) GLOBAL_UNIT_ASSIGNED_CONTEXT ( ( #540, #665, #408 ) ) REPRESENTATION_CONTEXT ( 'NONE', 'WORKASPACE' ) );
#244 = ORIENTED_EDGE ( 'NONE', *, *, #48, .F. ) ;
#245 = UNCERTAINTY_MEASURE_WITH_UNIT (LENGTH_MEASURE( 1.000000000000000082E-05 ), #540, 'distance_accuracy_value', 'NONE');
#246 = VERTEX_POINT ( 'NONE', #463 ) ;
#247 = ADVANCED_FACE ( 'NONE', ( #595 ), #654, .F. ) ;
#248 = VECTOR ( 'NONE', #401, 1000.000000000000000 ) ;
#249 = AXIS2_PLACEMENT_3D ( 'NONE', #119, #292, #115 ) ;
#250 = ORIENTED_EDGE ( 'NONE', *, *, #532, .F. ) ;
#251 = VECTOR ( 'NONE', #173, 1000.000000000000000 ) ;
#252 = PRODUCT_DEFINITION_CONTEXT ( 'detailed design', #694, 'design' ) ;
#253 = EDGE_CURVE ( 'NONE', #683, #54, #112, .T. ) ;
#254 = PLANE ( 'NONE',  #407 ) ;
#255 = LINE ( 'NONE', #726, #485 ) ;
#256 = EDGE_CURVE ( 'NONE', #479, #539, #630, .T. ) ;
#257 = ORIENTED_EDGE ( 'NONE', *, *, #722, .F. ) ;
#258 = PRODUCT ( 'CAD_Base_Plate_700x700x6', 'CAD_Base_Plate_700x700x6', '', ( #281 ) ) ;
#259 = ORIENTED_EDGE ( 'NONE', *, *, #722, .T. ) ;
#260 = VECTOR ( 'NONE', #469, 1000.000000000000000 ) ;
#261 = STYLED_ITEM ( 'NONE', ( #639 ), #653 ) ;
#262 = CARTESIAN_POINT ( 'NONE',  ( -17.49999999999999289, 17.49999999999999645, 900.0000000000000000 ) ) ;
#263 = ORIENTED_EDGE ( 'NONE', *, *, #206, .F. ) ;
#264 = FACE_BOUND ( 'NONE', #26, .T. ) ;
#265 = CARTESIAN_POINT ( 'NONE',  ( 17.50000000000001066, 17.49999999999999645, 900.0000000000000000 ) ) ;
#266 = ORIENTED_EDGE ( 'NONE', *, *, #765, .T. ) ;
#267 = FILL_AREA_STYLE ('',( #142 ) ) ;
#268 = CARTESIAN_POINT ( 'NONE',  ( 350.0000000000000568, 6.000000000000000000, -350.0000000000000000 ) ) ;
#269 = PRODUCT_RELATED_PRODUCT_CATEGORY ( 'part', '', ( #481 ) ) ;
#270 = DIRECTION ( 'NONE',  ( -0.000000000000000000, -0.000000000000000000, -1.000000000000000000 ) ) ;
#271 = ORIENTED_EDGE ( 'NONE', *, *, #326, .F. ) ;
#272 = APPLICATION_PROTOCOL_DEFINITION ( 'draft international standard', 'automotive_design', 1998, #749 ) ;
#273 = LINE ( 'NONE', #572, #557 ) ;
#274 = PLANE ( 'NONE',  #111 ) ;
#275 = VECTOR ( 'NONE', #638, 1000.000000000000000 ) ;
#276 = AXIS2_PLACEMENT_3D ( 'NONE', #530, #298, #472 ) ;
#277 = ORIENTED_EDGE ( 'NONE', *, *, #113, .T. ) ;
#278 = FACE_BOUND ( 'NONE', #57, .T. ) ;
#279 =( LENGTH_UNIT ( ) NAMED_UNIT ( * ) SI_UNIT ( .MILLI., .METRE. ) );
#280 = DIRECTION ( 'NONE',  ( 0.000000000000000000, -1.000000000000000000, 0.000000000000000000 ) ) ;
#281 = PRODUCT_CONTEXT ( 'NONE', #390, 'mechanical' ) ;
#282 = EDGE_CURVE ( 'NONE', #358, #329, #161, .T. ) ;
#283 = LINE ( 'NONE', #710, #720 ) ;
#284 = LINE ( 'NONE', #702, #38 ) ;
#285 = ORIENTED_EDGE ( 'NONE', *, *, #233, .F. ) ;
#286 = APPLICATION_PROTOCOL_DEFINITION ( 'draft international standard', 'automotive_design', 1998, #390 ) ;
#287 = FACE_OUTER_BOUND ( 'NONE', #549, .T. ) ;
#288 = DIRECTION ( 'NONE',  ( 0.000000000000000000, -1.000000000000000000, 0.000000000000000000 ) ) ;
#289 = VECTOR ( 'NONE', #47, 1000.000000000000000 ) ;
#290 = VECTOR ( 'NONE', #444, 1000.000000000000000 ) ;
#291 = CARTESIAN_POINT ( 'NONE',  ( 350.0000000000001705, 0.000000000000000000, 350.0000000000000000 ) ) ;
#292 = DIRECTION ( 'NONE',  ( -1.000000000000000000, 0.000000000000000000, 1.586032892321652236E-16 ) ) ;
#293 = EDGE_CURVE ( 'NONE', #656, #450, #283, .T. ) ;
#294 = CARTESIAN_POINT ( 'NONE',  ( 0.000000000000000000, 906.0000000000000000, 0.000000000000000000 ) ) ;
#295 = DIRECTION ( 'NONE',  ( -0.000000000000000000, -0.000000000000000000, -1.000000000000000000 ) ) ;
#296 =( NAMED_UNIT ( * ) PLANE_ANGLE_UNIT ( ) SI_UNIT ( $, .RADIAN. ) );
#297 = LINE ( 'NONE', #533, #690 ) ;
#298 = DIRECTION ( 'NONE',  ( 0.000000000000000000, 0.000000000000000000, 1.000000000000000000 ) ) ;
#299 = DIRECTION ( 'NONE',  ( 0.000000000000000000, 0.000000000000000000, 1.000000000000000000 ) ) ;
#300 = VECTOR ( 'NONE', #31, 1000.000000000000000 ) ;
#301 = VECTOR ( 'NONE', #689, 1000.000000000000000 ) ;
#302 =( GEOMETRIC_REPRESENTATION_CONTEXT ( 3 ) GLOBAL_UNCERTAINTY_ASSIGNED_CONTEXT ( ( #186 ) ) GLOBAL_UNIT_ASSIGNED_CONTEXT ( ( #320, #555, #681 ) ) REPRESENTATION_CONTEXT ( 'NONE', 'WORKASPACE' ) );
#303 = SHAPE_REPRESENTATION_RELATIONSHIP ( 'NONE' , 'NONE' ,  #174, #590 ) ;
#304 = ORIENTED_EDGE ( 'NONE', *, *, #108, .F. ) ;
#305 = EDGE_CURVE ( 'NONE', #451, #197, #589, .T. ) ;
#306 = DIRECTION ( 'NONE',  ( 0.000000000000000000, -0.000000000000000000, 1.000000000000000000 ) ) ;
#307 = PRODUCT_DEFINITION_SHAPE ( 'NONE', 'NONE',  #775 ) ;
#308 = CARTESIAN_POINT ( 'NONE',  ( -349.9999999999998295, 6.000000000000000000, 350.0000000000000000 ) ) ;
#309 = ADVANCED_FACE ( 'NONE', ( #287 ), #414, .T. ) ;
#310 = DIRECTION ( 'NONE',  ( 1.000000000000000000, 0.000000000000000000, 0.000000000000000000 ) ) ;
#311 = CARTESIAN_POINT ( 'NONE',  ( 17.50000000000001421, -17.50000000000000711, 0.000000000000000000 ) ) ;
#312 = ORIENTED_EDGE ( 'NONE', *, *, #541, .F. ) ;
#313 = VECTOR ( 'NONE', #668, 1000.000000000000000 ) ;
#314 = ITEM_DEFINED_TRANSFORMATION ( 'NONE', 'NONE', #175,  #422 ) ;
#315 = EDGE_CURVE ( 'NONE', #558, #94, #476, .T. ) ;
#316 = LINE ( 'NONE', #207, #571 ) ;
#317 = EDGE_LOOP ( 'NONE', ( #137, #509, #570, #149 ) ) ;
#318 = LINE ( 'NONE', #734, #473 ) ;
#319 = VERTEX_POINT ( 'NONE', #716 ) ;
#320 =( LENGTH_UNIT ( ) NAMED_UNIT ( * ) SI_UNIT ( .MILLI., .METRE. ) );
#321 = SURFACE_STYLE_FILL_AREA ( #9 ) ;
#322 = VERTEX_POINT ( 'NONE', #238 ) ;
#323 = PRODUCT ( 'CAD_Corner_Rail_35x35x2', 'CAD_Corner_Rail_35x35x2', '', ( #383 ) ) ;
#324 = CARTESIAN_POINT ( 'NONE',  ( 350.0000000000000568, 6.000000000000000000, -350.0000000000000000 ) ) ;
#325 = ORIENTED_EDGE ( 'NONE', *, *, #355, .T. ) ;
#326 = EDGE_CURVE ( 'NONE', #451, #375, #166, .T. ) ;
#327 = CARTESIAN_POINT ( 'NONE',  ( -349.9999999999998295, 0.000000000000000000, 350.0000000000000000 ) ) ;
#328 = ORIENTED_EDGE ( 'NONE', *, *, #765, .F. ) ;
#329 = VERTEX_POINT ( 'NONE', #410 ) ;
#330 = PRODUCT_CONTEXT ( 'NONE', #606, 'mechanical' ) ;
#331 = DIRECTION ( 'NONE',  ( 1.000000000000000000, 0.000000000000000000, -1.586032892321652236E-16 ) ) ;
#332 = VERTEX_POINT ( 'NONE', #642 ) ;
#333 = FACE_OUTER_BOUND ( 'NONE', #155, .T. ) ;
#334 = DIRECTION ( 'NONE',  ( -1.000000000000000000, -0.000000000000000000, -0.000000000000000000 ) ) ;
#335 = STYLED_ITEM ( 'NONE', ( #562 ), #391 ) ;
#336 = EDGE_CURVE ( 'NONE', #445, #329, #297, .T. ) ;
#337 = FACE_OUTER_BOUND ( 'NONE', #436, .T. ) ;
#338 = CARTESIAN_POINT ( 'NONE',  ( 0.000000000000000000, 0.000000000000000000, 0.000000000000000000 ) ) ;
#339 = DIRECTION ( 'NONE',  ( -0.000000000000000000, -1.000000000000000000, -0.000000000000000000 ) ) ;
#340 = PLANE ( 'NONE',  #14 ) ;
#341 = EDGE_LOOP ( 'NONE', ( #177, #413, #394, #685 ) ) ;
#342 = EDGE_CURVE ( 'NONE', #246, #358, #104, .T. ) ;
#343 = DIRECTION ( 'NONE',  ( -0.000000000000000000, -0.000000000000000000, -1.000000000000000000 ) ) ;
#344 = CLOSED_SHELL ( 'NONE', ( #415, #648, #475, #116, #580, #2 ) ) ;
#345 = VECTOR ( 'NONE', #430, 1000.000000000000000 ) ;
#346 = DIRECTION ( 'NONE',  ( 1.000000000000000000, 0.000000000000000000, 0.000000000000000000 ) ) ;
#347 = CARTESIAN_POINT ( 'NONE',  ( -15.50000000000000000, 15.50000000000000355, 0.000000000000000000 ) ) ;
#348 = EDGE_CURVE ( 'NONE', #94, #158, #713, .T. ) ;
#349 = VERTEX_POINT ( 'NONE', #529 ) ;
#350 = CARTESIAN_POINT ( 'NONE',  ( -17.49999999999999289, 17.49999999999999645, 900.0000000000000000 ) ) ;
#351 = DIRECTION ( 'NONE',  ( 0.000000000000000000, 1.000000000000000000, 0.000000000000000000 ) ) ;
#352 = DIRECTION ( 'NONE',  ( 0.000000000000000000, -0.000000000000000000, -1.000000000000000000 ) ) ;
#353 = ORIENTED_EDGE ( 'NONE', *, *, #234, .F. ) ;
#354 = DIRECTION ( 'NONE',  ( -0.000000000000000000, -0.000000000000000000, -1.000000000000000000 ) ) ;
#355 = EDGE_CURVE ( 'NONE', #365, #33, #34, .T. ) ;
#356 = ORIENTED_EDGE ( 'NONE', *, *, #113, .F. ) ;
#357 = DIRECTION ( 'NONE',  ( 0.000000000000000000, 0.000000000000000000, 1.000000000000000000 ) ) ;
#358 = VERTEX_POINT ( 'NONE', #523 ) ;
#359 = EDGE_CURVE ( 'NONE', #329, #197, #226, .T. ) ;
#360 = DIRECTION ( 'NONE',  ( -0.000000000000000000, 0.000000000000000000, 1.000000000000000000 ) ) ;
#361 = EDGE_LOOP ( 'NONE', ( #398, #184, #417, #727 ) ) ;
#362 = EDGE_CURVE ( 'NONE', #601, #656, #707, .T. ) ;
#363 = FACE_OUTER_BOUND ( 'NONE', #566, .T. ) ;
#364 = FACE_OUTER_BOUND ( 'NONE', #19, .T. ) ;
#365 = VERTEX_POINT ( 'NONE', #236 ) ;
#366 = CARTESIAN_POINT ( 'NONE',  ( -15.50000000000000000, 15.50000000000000355, 900.0000000000000000 ) ) ;
#367 = PLANE ( 'NONE',  #148 ) ;
#368 = ORIENTED_EDGE ( 'NONE', *, *, #253, .T. ) ;
#369 = DIRECTION ( 'NONE',  ( -0.000000000000000000, -1.000000000000000000, -0.000000000000000000 ) ) ;
#370 = ORIENTED_EDGE ( 'NONE', *, *, #206, .T. ) ;
#371 = DIRECTION ( 'NONE',  ( -1.000000000000000000, -2.238352872228138663E-16, 0.000000000000000000 ) ) ;
#372 = LINE ( 'NONE', #6, #313 ) ;
#373 = FACE_OUTER_BOUND ( 'NONE', #517, .T. ) ;
#374 = EDGE_CURVE ( 'NONE', #103, #94, #467, .T. ) ;
#375 = VERTEX_POINT ( 'NONE', #439 ) ;
#376 = CLOSED_SHELL ( 'NONE', ( #247, #751, #718, #703, #309, #670 ) ) ;
#377 = PRODUCT_CONTEXT ( 'NONE', #135, 'mechanical' ) ;
#378 = VECTOR ( 'NONE', #295, 1000.000000000000000 ) ;
#379 = AXIS2_PLACEMENT_3D ( 'NONE', #664, #360, #542 ) ;
#380 = FACE_OUTER_BOUND ( 'NONE', #423, .T. ) ;
#381 = CARTESIAN_POINT ( 'NONE',  ( -17.49999999999999289, 17.49999999999999645, 900.0000000000000000 ) ) ;
#382 = ORIENTED_EDGE ( 'NONE', *, *, #691, .T. ) ;
#383 = PRODUCT_CONTEXT ( 'NONE', #418, 'mechanical' ) ;
#384 = PRODUCT_RELATED_PRODUCT_CATEGORY ( 'part', '', ( #258 ) ) ;
#385 = EDGE_CURVE ( 'NONE', #656, #332, #735, .T. ) ;
#386 = CARTESIAN_POINT ( 'NONE',  ( 350.0000000000000568, 0.000000000000000000, -350.0000000000000000 ) ) ;
#387 = CARTESIAN_POINT ( 'NONE',  ( -349.9999999999999432, 6.000000000000000000, -350.0000000000000000 ) ) ;
#388 = ORIENTED_EDGE ( 'NONE', *, *, #305, .F. ) ;
#389 = ORIENTED_EDGE ( 'NONE', *, *, #526, .F. ) ;
#390 = APPLICATION_CONTEXT ( 'automotive_design' ) ;
#391 = MANIFOLD_SOLID_BREP ( 'Boss-Extrude1', #615 ) ;
#392 = PRESENTATION_STYLE_ASSIGNMENT (( #505 ) ) ;
#393 = CARTESIAN_POINT ( 'NONE',  ( -17.49999999999998934, -17.50000000000000711, 900.0000000000000000 ) ) ;
#394 = ORIENTED_EDGE ( 'NONE', *, *, #465, .F. ) ;
#395 = LINE ( 'NONE', #560, #766 ) ;
#396 = AXIS2_PLACEMENT_3D ( 'NONE', #30, #280, #352 ) ;
#397 = EDGE_LOOP ( 'NONE', ( #304, #285, #160, #187 ) ) ;
#398 = ORIENTED_EDGE ( 'NONE', *, *, #163, .F. ) ;
#399 = DIRECTION ( 'NONE',  ( -0.000000000000000000, -1.000000000000000000, -0.000000000000000000 ) ) ;
#400 = DIRECTION ( 'NONE',  ( 9.912705577010325549E-17, -1.000000000000000000, 0.000000000000000000 ) ) ;
#401 = DIRECTION ( 'NONE',  ( -0.000000000000000000, -1.000000000000000000, -0.000000000000000000 ) ) ;
#402 = DIRECTION ( 'NONE',  ( 1.000000000000000000, 0.000000000000000000, 0.000000000000000000 ) ) ;
#403 = EDGE_CURVE ( 'NONE', #539, #144, #684, .T. ) ;
#404 = DIRECTION ( 'NONE',  ( -1.000000000000000000, -0.000000000000000000, -0.000000000000000000 ) ) ;
#405 = VECTOR ( 'NONE', #98, 1000.000000000000000 ) ;
#406 = CARTESIAN_POINT ( 'NONE',  ( 0.000000000000000000, 0.000000000000000000, 0.000000000000000000 ) ) ;
#407 = AXIS2_PLACEMENT_3D ( 'NONE', #489, #725, #671 ) ;
#408 =( NAMED_UNIT ( * ) SI_UNIT ( $, .STERADIAN. ) SOLID_ANGLE_UNIT ( ) );
#409 = FACE_OUTER_BOUND ( 'NONE', #736, .T. ) ;
#410 = CARTESIAN_POINT ( 'NONE',  ( -15.49999999999999289, -15.49999999999999289, 0.000000000000000000 ) ) ;
#411 = DIRECTION ( 'NONE',  ( 1.000000000000000000, 0.000000000000000000, 0.000000000000000000 ) ) ;
#412 = SHAPE_REPRESENTATION ( 'CAD_Corner_Rail_35x35x2', ( #422 ), #575 ) ;
#413 = ORIENTED_EDGE ( 'NONE', *, *, #256, .F. ) ;
#414 = PLANE ( 'NONE',  #37 ) ;
#415 = ADVANCED_FACE ( 'NONE', ( #61 ), #131, .F. ) ;
#416 = LINE ( 'NONE', #52, #228 ) ;
#417 = ORIENTED_EDGE ( 'NONE', *, *, #213, .F. ) ;
#418 = APPLICATION_CONTEXT ( 'automotive_design' ) ;
#419 = DIRECTION ( 'NONE',  ( 1.000000000000000000, 0.000000000000000000, 0.000000000000000000 ) ) ;
#420 = VECTOR ( 'NONE', #698, 1000.000000000000000 ) ;
#421 = PRODUCT_DEFINITION_CONTEXT ( 'detailed design', #178, 'design' ) ;
#422 = AXIS2_PLACEMENT_3D ( 'NONE', #406, #592, #411 ) ;
#423 = EDGE_LOOP ( 'NONE', ( #325, #49, #250, #71 ) ) ;
#424 = PRODUCT_DEFINITION_SHAPE ( 'NONE', 'NONE',  #774 ) ;
#425 = PLANE ( 'NONE',  #379 ) ;
#426 = ADVANCED_FACE ( 'NONE', ( #364 ), #143, .F. ) ;
#427 = ORIENTED_EDGE ( 'NONE', *, *, #640, .T. ) ;
#428 = CARTESIAN_POINT ( 'NONE',  ( 350.0000000000000568, 0.000000000000000000, -350.0000000000000000 ) ) ;
#429 =( REPRESENTATION_RELATIONSHIP ('NONE','NONE', #574, #412 ) REPRESENTATION_RELATIONSHIP_WITH_TRANSFORMATION ( #220 )SHAPE_REPRESENTATION_RELATIONSHIP( ) );
#430 = DIRECTION ( 'NONE',  ( -0.000000000000000000, -0.000000000000000000, -1.000000000000000000 ) ) ;
#431 = DIRECTION ( 'NONE',  ( -1.586032892321652236E-16, 0.000000000000000000, -1.000000000000000000 ) ) ;
#432 = ORIENTED_EDGE ( 'NONE', *, *, #282, .T. ) ;
#433 = PRESENTATION_LAYER_ASSIGNMENT (  '', '', ( #261 ) ) ;
#434 = AXIS2_PLACEMENT_3D ( 'NONE', #535, #42, #121 ) ;
#435 = CARTESIAN_POINT ( 'NONE',  ( -15.49999999999999289, -15.49999999999999289, 900.0000000000000000 ) ) ;
#436 = EDGE_LOOP ( 'NONE', ( #697, #719, #740, #259 ) ) ;
#437 = LINE ( 'NONE', #350, #260 ) ;
#438 = CARTESIAN_POINT ( 'NONE',  ( -349.9999999999999432, 6.000000000000000000, -350.0000000000000000 ) ) ;
#439 = CARTESIAN_POINT ( 'NONE',  ( 15.50000000000000000, 15.50000000000000355, 900.0000000000000000 ) ) ;
#440 = ORIENTED_EDGE ( 'NONE', *, *, #591, .T. ) ;
#441 = APPLICATION_PROTOCOL_DEFINITION ( 'draft international standard', 'automotive_design', 1998, #135 ) ;
#442 = DIRECTION ( 'NONE',  ( -0.000000000000000000, 0.000000000000000000, 1.000000000000000000 ) ) ;
#443 = CARTESIAN_POINT ( 'NONE',  ( 0.000000000000000000, 0.000000000000000000, 0.000000000000000000 ) ) ;
#444 = DIRECTION ( 'NONE',  ( -1.000000000000000000, -0.000000000000000000, -0.000000000000000000 ) ) ;
#445 = VERTEX_POINT ( 'NONE', #490 ) ;
#446 = VECTOR ( 'NONE', #634, 1000.000000000000000 ) ;
#447 = ADVANCED_FACE ( 'NONE', ( #608 ), #502, .T. ) ;
#448 = PLANE ( 'NONE',  #62 ) ;
#449 = DIRECTION ( 'NONE',  ( 0.000000000000000000, 0.000000000000000000, -1.000000000000000000 ) ) ;
#450 = VERTEX_POINT ( 'NONE', #311 ) ;
#451 = VERTEX_POINT ( 'NONE', #190 ) ;
#452 = EDGE_CURVE ( 'NONE', #349, #619, #316, .T. ) ;
#453 = LINE ( 'NONE', #386, #300 ) ;
#454 = CARTESIAN_POINT ( 'NONE',  ( -15.50000000000000000, 15.50000000000000355, 900.0000000000000000 ) ) ;
#455 = ORIENTED_EDGE ( 'NONE', *, *, #48, .T. ) ;
#456 = SURFACE_SIDE_STYLE ('',( #101 ) ) ;
#457 = CARTESIAN_POINT ( 'NONE',  ( -349.9999999999999432, 6.000000000000000000, -350.0000000000000000 ) ) ;
#458 = ORIENTED_EDGE ( 'NONE', *, *, #234, .T. ) ;
#459 = CARTESIAN_POINT ( 'NONE',  ( -15.49999999999999289, -15.49999999999999289, 0.000000000000000000 ) ) ;
#460 = DIRECTION ( 'NONE',  ( -0.000000000000000000, -1.000000000000000000, -0.000000000000000000 ) ) ;
#461 = MECHANICAL_DESIGN_GEOMETRIC_PRESENTATION_REPRESENTATION (  '', ( #335 ), #195 ) ;
#462 = ORIENTED_EDGE ( 'NONE', *, *, #348, .T. ) ;
#463 = CARTESIAN_POINT ( 'NONE',  ( 15.50000000000000000, 15.50000000000000355, 0.000000000000000000 ) ) ;
#464 = DIRECTION ( 'NONE',  ( -0.000000000000000000, -0.000000000000000000, -1.000000000000000000 ) ) ;
#465 = EDGE_CURVE ( 'NONE', #319, #479, #136, .T. ) ;
#466 = CARTESIAN_POINT ( 'NONE',  ( 350.0000000000000568, 0.000000000000000000, -350.0000000000000000 ) ) ;
#467 = LINE ( 'NONE', #168, #729 ) ;
#468 = DIRECTION ( 'NONE',  ( 0.000000000000000000, 1.000000000000000000, 0.000000000000000000 ) ) ;
#469 = DIRECTION ( 'NONE',  ( -1.000000000000000000, -0.000000000000000000, -0.000000000000000000 ) ) ;
#470 =( REPRESENTATION_RELATIONSHIP ('NONE','NONE', #574, #412 ) REPRESENTATION_RELATIONSHIP_WITH_TRANSFORMATION ( #100 )SHAPE_REPRESENTATION_RELATIONSHIP( ) );
#471 = VECTOR ( 'NONE', #270, 1000.000000000000000 ) ;
#472 = DIRECTION ( 'NONE',  ( 1.000000000000000000, 0.000000000000000000, -0.000000000000000000 ) ) ;
#473 = VECTOR ( 'NONE', #369, 1000.000000000000000 ) ;
#474 = CARTESIAN_POINT ( 'NONE',  ( -332.4999999999998863, 5.999999999999994671, 332.5000000000000568 ) ) ;
#475 = ADVANCED_FACE ( 'NONE', ( #373 ), #488, .F. ) ;
#476 = LINE ( 'NONE', #764, #525 ) ;
#477 = FACE_OUTER_BOUND ( 'NONE', #567, .T. ) ;
#478 = CARTESIAN_POINT ( 'NONE',  ( -349.9999999999999432, 0.000000000000000000, -350.0000000000000000 ) ) ;
#479 = VERTEX_POINT ( 'NONE', #7 ) ;
#480 = DIRECTION ( 'NONE',  ( -2.238352872228138663E-16, 1.000000000000000000, -0.000000000000000000 ) ) ;
#481 = PRODUCT ( 'CAD_Spacecraft_Primary_Structure', 'CAD_Spacecraft_Primary_Structure', '', ( #330 ) ) ;
#482 = ORIENTED_EDGE ( 'NONE', *, *, #342, .F. ) ;
#483 = CARTESIAN_POINT ( 'NONE',  ( 0.000000000000000000, 0.000000000000000000, 0.000000000000000000 ) ) ;
#484 = VECTOR ( 'NONE', #90, 1000.000000000000000 ) ;
#485 = VECTOR ( 'NONE', #191, 1000.000000000000000 ) ;
#486 = ORIENTED_EDGE ( 'NONE', *, *, #359, .F. ) ;
#487 = EDGE_CURVE ( 'NONE', #349, #67, #255, .T. ) ;
#488 = PLANE ( 'NONE',  #600 ) ;
#489 = CARTESIAN_POINT ( 'NONE',  ( 0.000000000000000000, 6.000000000000000000, 0.000000000000000000 ) ) ;
#490 = CARTESIAN_POINT ( 'NONE',  ( -15.49999999999999289, -15.49999999999999289, 900.0000000000000000 ) ) ;
#491 = ORIENTED_EDGE ( 'NONE', *, *, #282, .F. ) ;
#492 = FILL_AREA_STYLE_COLOUR ( '', #637 ) ;
#493 = EDGE_LOOP ( 'NONE', ( #743, #257, #8, #132 ) ) ;
#494 = VECTOR ( 'NONE', #598, 1000.000000000000000 ) ;
#495 = ADVANCED_FACE ( 'NONE', ( #676 ), #367, .T. ) ;
#496 = DIRECTION ( 'NONE',  ( -1.586032892321652236E-16, -0.000000000000000000, -1.000000000000000000 ) ) ;
#497 = AXIS2_PLACEMENT_3D ( 'NONE', #180, #188, #310 ) ;
#498 =( NAMED_UNIT ( * ) SI_UNIT ( $, .STERADIAN. ) SOLID_ANGLE_UNIT ( ) );
#499 = EDGE_LOOP ( 'NONE', ( #482, #214, #503, #141 ) ) ;
#500 = APPLICATION_PROTOCOL_DEFINITION ( 'draft international standard', 'automotive_design', 1998, #694 ) ;
#501 = LINE ( 'NONE', #18, #728 ) ;
#502 = PLANE ( 'NONE',  #721 ) ;
#503 = ORIENTED_EDGE ( 'NONE', *, *, #645, .T. ) ;
#504 = PRODUCT_DEFINITION_SHAPE ( 'NONE', 'NONE',  #772 ) ;
#505 = SURFACE_STYLE_USAGE ( .BOTH. , #456 ) ;
#506 = DIRECTION ( 'NONE',  ( -1.000000000000000000, 0.000000000000000000, -0.000000000000000000 ) ) ;
#507 = EDGE_CURVE ( 'NONE', #536, #365, #318, .T. ) ;
#508 = CARTESIAN_POINT ( 'NONE',  ( 350.0000000000001705, 6.000000000000000000, 350.0000000000000000 ) ) ;
#509 = ORIENTED_EDGE ( 'NONE', *, *, #605, .F. ) ;
#510 = APPLICATION_PROTOCOL_DEFINITION ( 'draft international standard', 'automotive_design', 1998, #178 ) ;
#511 = AXIS2_PLACEMENT_3D ( 'NONE', #91, #449, #506 ) ;
#512 = DIRECTION ( 'NONE',  ( -1.000000000000000000, -0.000000000000000000, -0.000000000000000000 ) ) ;
#513 = LINE ( 'NONE', #381, #51 ) ;
#514 = ORIENTED_EDGE ( 'NONE', *, *, #227, .T. ) ;
#515 = PLANE ( 'NONE',  #522 ) ;
#516 =( NAMED_UNIT ( * ) PLANE_ANGLE_UNIT ( ) SI_UNIT ( $, .RADIAN. ) );
#517 = EDGE_LOOP ( 'NONE', ( #641, #154, #389, #23 ) ) ;
#518 = CARTESIAN_POINT ( 'NONE',  ( -349.9999999999998295, 0.000000000000000000, 350.0000000000000000 ) ) ;
#519 = CARTESIAN_POINT ( 'NONE',  ( 17.50000000000001066, 17.49999999999999645, 900.0000000000000000 ) ) ;
#520 = EDGE_LOOP ( 'NONE', ( #486, #708, #455, #667 ) ) ;
#521 = SHAPE_DEFINITION_REPRESENTATION ( #204, #629 ) ;
#522 = AXIS2_PLACEMENT_3D ( 'NONE', #733, #442, #687 ) ;
#523 = CARTESIAN_POINT ( 'NONE',  ( -15.50000000000000000, 15.50000000000000355, 0.000000000000000000 ) ) ;
#524 = PLANE ( 'NONE',  #660 ) ;
#525 = VECTOR ( 'NONE', #354, 1000.000000000000000 ) ;
#526 = EDGE_CURVE ( 'NONE', #644, #536, #547, .T. ) ;
#527 = CARTESIAN_POINT ( 'NONE',  ( -15.49999999999999289, -15.49999999999999289, 900.0000000000000000 ) ) ;
#528 = PRODUCT_DEFINITION_FORMATION_WITH_SPECIFIED_SOURCE ( 'ANY', '', #258, .NOT_KNOWN. ) ;
#529 = CARTESIAN_POINT ( 'NONE',  ( -349.9999999999998295, 6.000000000000000000, 350.0000000000000000 ) ) ;
#530 = CARTESIAN_POINT ( 'NONE',  ( -349.9999999999999432, 6.000000000000000000, -350.0000000000000000 ) ) ;
#531 = DIRECTION ( 'NONE',  ( 0.000000000000000000, -0.000000000000000000, 1.000000000000000000 ) ) ;
#532 = EDGE_CURVE ( 'NONE', #536, #319, #372, .T. ) ;
#533 = CARTESIAN_POINT ( 'NONE',  ( -15.49999999999999289, -15.49999999999999289, 900.0000000000000000 ) ) ;
#534 = VECTOR ( 'NONE', #755, 1000.000000000000000 ) ;
#535 = CARTESIAN_POINT ( 'NONE',  ( -332.5000000000000000, 5.999999999999994671, -332.4999999999999432 ) ) ;
#536 = VERTEX_POINT ( 'NONE', #308 ) ;
#537 = AXIS2_PLACEMENT_3D ( 'NONE', #661, #357, #346 ) ;
#538 = UNCERTAINTY_MEASURE_WITH_UNIT (LENGTH_MEASURE( 1.000000000000000082E-05 ), #117, 'distance_accuracy_value', 'NONE');
#539 = VERTEX_POINT ( 'NONE', #428 ) ;
#540 =( LENGTH_UNIT ( ) NAMED_UNIT ( * ) SI_UNIT ( .MILLI., .METRE. ) );
#541 = EDGE_CURVE ( 'NONE', #669, #358, #76, .T. ) ;
#542 = DIRECTION ( 'NONE',  ( 1.000000000000000000, 0.000000000000000000, 0.000000000000000000 ) ) ;
#543 = VECTOR ( 'NONE', #646, 1000.000000000000000 ) ;
#544 = DIRECTION ( 'NONE',  ( -1.000000000000000000, 0.000000000000000000, 1.586032892321652236E-16 ) ) ;
#545 = ORIENTED_EDGE ( 'NONE', *, *, #59, .T. ) ;
#546 = LINE ( 'NONE', #5, #275 ) ;
#547 = LINE ( 'NONE', #438, #78 ) ;
#548 = DIRECTION ( 'NONE',  ( 1.000000000000000000, 0.000000000000000000, -1.586032892321652236E-16 ) ) ;
#549 = EDGE_LOOP ( 'NONE', ( #370, #717, #440, #80 ) ) ;
#550 = DIRECTION ( 'NONE',  ( 1.586032892321652236E-16, 0.000000000000000000, 1.000000000000000000 ) ) ;
#551 = PRODUCT_DEFINITION_CONTEXT ( 'detailed design', #749, 'design' ) ;
#552 = CARTESIAN_POINT ( 'NONE',  ( -349.9999999999999432, 0.000000000000000000, -350.0000000000000000 ) ) ;
#553 = ADVANCED_FACE ( 'NONE', ( #138, #264 ), #425, .F. ) ;
#554 = ORIENTED_EDGE ( 'NONE', *, *, #253, .F. ) ;
#555 =( NAMED_UNIT ( * ) PLANE_ANGLE_UNIT ( ) SI_UNIT ( $, .RADIAN. ) );
#556 = DIRECTION ( 'NONE',  ( 1.586032892321652236E-16, 0.000000000000000000, 1.000000000000000000 ) ) ;
#557 = VECTOR ( 'NONE', #496, 1000.000000000000000 ) ;
#558 = VERTEX_POINT ( 'NONE', #1 ) ;
#559 = VECTOR ( 'NONE', #480, 1000.000000000000000 ) ;
#560 = CARTESIAN_POINT ( 'NONE',  ( -349.9999999999999432, 6.000000000000000000, -350.0000000000000000 ) ) ;
#561 = DIRECTION ( 'NONE',  ( 0.000000000000000000, 0.000000000000000000, 1.000000000000000000 ) ) ;
#562 = PRESENTATION_STYLE_ASSIGNMENT (( #200 ) ) ;
#563 = ORIENTED_EDGE ( 'NONE', *, *, #385, .T. ) ;
#564 = PLANE ( 'NONE',  #636 ) ;
#565 = DIRECTION ( 'NONE',  ( 0.000000000000000000, -0.000000000000000000, 1.000000000000000000 ) ) ;
#566 = EDGE_LOOP ( 'NONE', ( #182, #129, #212, #692 ) ) ;
#567 = EDGE_LOOP ( 'NONE', ( #53, #328, #46, #368 ) ) ;
#568 = DIRECTION ( 'NONE',  ( -1.000000000000000000, 0.000000000000000000, -0.000000000000000000 ) ) ;
#569 = CARTESIAN_POINT ( 'NONE',  ( -349.9999999999999432, 6.000000000000000000, -350.0000000000000000 ) ) ;
#570 = ORIENTED_EDGE ( 'NONE', *, *, #172, .F. ) ;
#571 = VECTOR ( 'NONE', #15, 1000.000000000000000 ) ;
#572 = CARTESIAN_POINT ( 'NONE',  ( 350.0000000000000568, 6.000000000000000000, -350.0000000000000000 ) ) ;
#573 = DIRECTION ( 'NONE',  ( -0.000000000000000000, -0.000000000000000000, -1.000000000000000000 ) ) ;
#574 = SHAPE_REPRESENTATION ( 'CAD_Spacecraft_Primary_Structure', ( #497, #537, #43, #216, #434, #747, #175 ), #302 ) ;
#575 =( GEOMETRIC_REPRESENTATION_CONTEXT ( 3 ) GLOBAL_UNCERTAINTY_ASSIGNED_CONTEXT ( ( #538 ) ) GLOBAL_UNIT_ASSIGNED_CONTEXT ( ( #117, #45, #110 ) ) REPRESENTATION_CONTEXT ( 'NONE', 'WORKASPACE' ) );
#576 = PLANE ( 'NONE',  #396 ) ;
#577 = DIRECTION ( 'NONE',  ( 2.238352872228138663E-16, -1.000000000000000000, 0.000000000000000000 ) ) ;
#578 = CARTESIAN_POINT ( 'NONE',  ( 17.50000000000001421, -17.50000000000000711, 900.0000000000000000 ) ) ;
#579 = DIRECTION ( 'NONE',  ( 0.000000000000000000, 1.000000000000000000, 0.000000000000000000 ) ) ;
#580 = ADVANCED_FACE ( 'NONE', ( #363 ), #254, .T. ) ;
#581 = DIRECTION ( 'NONE',  ( -0.000000000000000000, -1.000000000000000000, -0.000000000000000000 ) ) ;
#582 =( NAMED_UNIT ( * ) SI_UNIT ( $, .STERADIAN. ) SOLID_ANGLE_UNIT ( ) );
#583 = ORIENTED_EDGE ( 'NONE', *, *, #640, .F. ) ;
#584 = PRESENTATION_LAYER_ASSIGNMENT (  '', '', ( #714 ) ) ;
#585 = CARTESIAN_POINT ( 'NONE',  ( 350.0000000000000568, 6.000000000000000000, -350.0000000000000000 ) ) ;
#586 = VECTOR ( 'NONE', #140, 1000.000000000000000 ) ;
#587 = CARTESIAN_POINT ( 'NONE',  ( 332.5000000000001137, 5.999999999999994671, 332.5000000000000568 ) ) ;
#588 = PRODUCT_DEFINITION_FORMATION_WITH_SPECIFIED_SOURCE ( 'ANY', '', #610, .NOT_KNOWN. ) ;
#589 = LINE ( 'NONE', #760, #378 ) ;
#590 = ADVANCED_BREP_SHAPE_REPRESENTATION ( '', ( #653, #422 ), #243 ) ;
#591 = EDGE_CURVE ( 'NONE', #225, #349, #68, .T. ) ;
#592 = DIRECTION ( 'NONE',  ( 0.000000000000000000, 0.000000000000000000, 1.000000000000000000 ) ) ;
#593 = CONTEXT_DEPENDENT_SHAPE_REPRESENTATION ( #470, #3 ) ;
#594 = ORIENTED_EDGE ( 'NONE', *, *, #591, .F. ) ;
#595 = FACE_OUTER_BOUND ( 'NONE', #208, .T. ) ;
#596 = DIRECTION ( 'NONE',  ( 1.000000000000000000, 0.000000000000000000, 0.000000000000000000 ) ) ;
#597 = EDGE_LOOP ( 'NONE', ( #93, #356, #677, #712 ) ) ;
#598 = DIRECTION ( 'NONE',  ( 9.912705577010325549E-17, -1.000000000000000000, 0.000000000000000000 ) ) ;
#599 = PLANE ( 'NONE',  #276 ) ;
#600 = AXIS2_PLACEMENT_3D ( 'NONE', #724, #548, #431 ) ;
#601 = VERTEX_POINT ( 'NONE', #147 ) ;
#602 = DIRECTION ( 'NONE',  ( 1.000000000000000000, 0.000000000000000000, 0.000000000000000000 ) ) ;
#603 = LINE ( 'NONE', #478, #77 ) ;
#604 = ORIENTED_EDGE ( 'NONE', *, *, #452, .F. ) ;
#605 = EDGE_CURVE ( 'NONE', #644, #144, #284, .T. ) ;
#606 = APPLICATION_CONTEXT ( 'automotive_design' ) ;
#607 = VECTOR ( 'NONE', #464, 1000.000000000000000 ) ;
#608 = FACE_OUTER_BOUND ( 'NONE', #89, .T. ) ;
#609 = ORIENTED_EDGE ( 'NONE', *, *, #342, .T. ) ;
#610 = PRODUCT ( 'CAD_Top_Plate_700x700x6', 'CAD_Top_Plate_700x700x6', '', ( #377 ) ) ;
#611 = DIRECTION ( 'NONE',  ( 0.000000000000000000, 1.000000000000000000, 0.000000000000000000 ) ) ;
#612 = ORIENTED_EDGE ( 'NONE', *, *, #691, .F. ) ;
#613 = ORIENTED_EDGE ( 'NONE', *, *, #645, .F. ) ;
#614 = LINE ( 'NONE', #24, #420 ) ;
#615 = CLOSED_SHELL ( 'NONE', ( #221, #553, #662, #74, #426, #92, #151, #738, #447, #495 ) ) ;
#616 = VECTOR ( 'NONE', #399, 1000.000000000000000 ) ;
#617 = CARTESIAN_POINT ( 'NONE',  ( 350.0000000000000568, 6.000000000000000000, -350.0000000000000000 ) ) ;
#618 = VECTOR ( 'NONE', #39, 1000.000000000000000 ) ;
#619 = VERTEX_POINT ( 'NONE', #218 ) ;
#620 = CARTESIAN_POINT ( 'NONE',  ( -349.9999999999999432, 6.000000000000000000, -350.0000000000000000 ) ) ;
#621 = LINE ( 'NONE', #393, #650 ) ;
#622 = PRODUCT_DEFINITION_SHAPE ( 'NONE', 'NONE',  #771 ) ;
#623 = LINE ( 'NONE', #527, #446 ) ;
#624 = ORIENTED_EDGE ( 'NONE', *, *, #315, .T. ) ;
#625 = ADVANCED_BREP_SHAPE_REPRESENTATION ( '', ( #391, #422 ), #575 ) ;
#626 = PRODUCT_DEFINITION ( 'UNKNOWN', '', #588, #551 ) ;
#627 = CARTESIAN_POINT ( 'NONE',  ( -349.9999999999999432, 6.000000000000000000, -350.0000000000000000 ) ) ;
#628 = FACE_OUTER_BOUND ( 'NONE', #700, .T. ) ;
#629 = SHAPE_REPRESENTATION ( 'CAD_Base_Plate_700x700x6', ( #422 ), #675 ) ;
#630 = LINE ( 'NONE', #242, #616 ) ;
#631 = ORIENTED_EDGE ( 'NONE', *, *, #762, .F. ) ;
#632 = CARTESIAN_POINT ( 'NONE',  ( -349.9999999999999432, 0.000000000000000000, -350.0000000000000000 ) ) ;
#633 = FILL_AREA_STYLE_COLOUR ( '', #123 ) ;
#634 = DIRECTION ( 'NONE',  ( 1.000000000000000000, 0.000000000000000000, 0.000000000000000000 ) ) ;
#635 = CONTEXT_DEPENDENT_SHAPE_REPRESENTATION ( #429, #622 ) ;
#636 = AXIS2_PLACEMENT_3D ( 'NONE', #20, #371, #577 ) ;
#637 = COLOUR_RGB ( '',0.7921568627450980005, 0.8196078431372548767, 0.9333333333333333481 ) ;
#638 = DIRECTION ( 'NONE',  ( -9.912705577010325549E-17, 1.000000000000000000, -0.000000000000000000 ) ) ;
#639 = PRESENTATION_STYLE_ASSIGNMENT (( #203 ) ) ;
#640 = EDGE_CURVE ( 'NONE', #601, #158, #621, .T. ) ;
#641 = ORIENTED_EDGE ( 'NONE', *, *, #213, .T. ) ;
#642 = CARTESIAN_POINT ( 'NONE',  ( 17.50000000000001066, 17.49999999999999645, 900.0000000000000000 ) ) ;
#643 = CARTESIAN_POINT ( 'NONE',  ( -15.50000000000000000, 15.50000000000000355, 900.0000000000000000 ) ) ;
#644 = VERTEX_POINT ( 'NONE', #457 ) ;
#645 = EDGE_CURVE ( 'NONE', #375, #669, #35, .T. ) ;
#646 = DIRECTION ( 'NONE',  ( -1.000000000000000000, -0.000000000000000000, -0.000000000000000000 ) ) ;
#647 = DIRECTION ( 'NONE',  ( 1.586032892321652236E-16, 0.000000000000000000, 1.000000000000000000 ) ) ;
#648 = ADVANCED_FACE ( 'NONE', ( #699 ), #274, .F. ) ;
#649 = CARTESIAN_POINT ( 'NONE',  ( 350.0000000000001705, 6.000000000000000000, 350.0000000000000000 ) ) ;
#650 = VECTOR ( 'NONE', #573, 1000.000000000000000 ) ;
#651 = DIRECTION ( 'NONE',  ( 1.000000000000000000, 0.000000000000000000, 0.000000000000000000 ) ) ;
#652 = CARTESIAN_POINT ( 'NONE',  ( -17.49999999999999289, 17.49999999999999645, 0.000000000000000000 ) ) ;
#653 = MANIFOLD_SOLID_BREP ( 'Boss-Extrude1', #376 ) ;
#654 = PLANE ( 'NONE',  #249 ) ;
#655 = CARTESIAN_POINT ( 'NONE',  ( -349.9999999999999432, 6.000000000000000000, -350.0000000000000000 ) ) ;
#656 = VERTEX_POINT ( 'NONE', #578 ) ;
#657 = CARTESIAN_POINT ( 'NONE',  ( -17.49999999999999289, 17.49999999999999645, 0.000000000000000000 ) ) ;
#658 =( NAMED_UNIT ( * ) SI_UNIT ( $, .STERADIAN. ) SOLID_ANGLE_UNIT ( ) );
#659 = EDGE_LOOP ( 'NONE', ( #563, #514, #382, #75 ) ) ;
#660 = AXIS2_PLACEMENT_3D ( 'NONE', #758, #288, #41 ) ;
#661 = CARTESIAN_POINT ( 'NONE',  ( 0.000000000000000000, 0.000000000000000000, 0.000000000000000000 ) ) ;
#662 = ADVANCED_FACE ( 'NONE', ( #32 ), #102, .F. ) ;
#663 = ORIENTED_EDGE ( 'NONE', *, *, #64, .T. ) ;
#664 = CARTESIAN_POINT ( 'NONE',  ( 0.000000000000000000, 0.000000000000000000, 0.000000000000000000 ) ) ;
#665 =( NAMED_UNIT ( * ) PLANE_ANGLE_UNIT ( ) SI_UNIT ( $, .RADIAN. ) );
#666 = PRODUCT_DEFINITION_CONTEXT ( 'detailed design', #81, 'design' ) ;
#667 = ORIENTED_EDGE ( 'NONE', *, *, #305, .T. ) ;
#668 = DIRECTION ( 'NONE',  ( 1.000000000000000000, 0.000000000000000000, 0.000000000000000000 ) ) ;
#669 = VERTEX_POINT ( 'NONE', #643 ) ;
#670 = ADVANCED_FACE ( 'NONE', ( #105 ), #340, .F. ) ;
#671 = DIRECTION ( 'NONE',  ( 0.000000000000000000, -0.000000000000000000, 1.000000000000000000 ) ) ;
#672 =( REPRESENTATION_RELATIONSHIP ('NONE','NONE', #574, #174 ) REPRESENTATION_RELATIONSHIP_WITH_TRANSFORMATION ( #314 )SHAPE_REPRESENTATION_RELATIONSHIP( ) );
#673 = VECTOR ( 'NONE', #752, 1000.000000000000000 ) ;
#674 = UNCERTAINTY_MEASURE_WITH_UNIT (LENGTH_MEASURE( 1.000000000000000082E-05 ), #682, 'distance_accuracy_value', 'NONE');
#675 =( GEOMETRIC_REPRESENTATION_CONTEXT ( 3 ) GLOBAL_UNCERTAINTY_ASSIGNED_CONTEXT ( ( #69 ) ) GLOBAL_UNIT_ASSIGNED_CONTEXT ( ( #55, #296, #658 ) ) REPRESENTATION_CONTEXT ( 'NONE', 'WORKASPACE' ) );
#676 = FACE_OUTER_BOUND ( 'NONE', #520, .T. ) ;
#677 = ORIENTED_EDGE ( 'NONE', *, *, #85, .F. ) ;
#678 = PRODUCT_DEFINITION_SHAPE ( 'NONE', 'NONE',  #189 ) ;
#679 = AXIS2_PLACEMENT_3D ( 'NONE', #483, #299, #419 ) ;
#680 = PRODUCT_RELATED_PRODUCT_CATEGORY ( 'part', '', ( #323 ) ) ;
#681 =( NAMED_UNIT ( * ) SI_UNIT ( $, .STERADIAN. ) SOLID_ANGLE_UNIT ( ) );
#682 =( LENGTH_UNIT ( ) NAMED_UNIT ( * ) SI_UNIT ( .MILLI., .METRE. ) );
#683 = VERTEX_POINT ( 'NONE', #268 ) ;
#684 = LINE ( 'NONE', #552, #290 ) ;
#685 = ORIENTED_EDGE ( 'NONE', *, *, #11, .T. ) ;
#686 = SHAPE_DEFINITION_REPRESENTATION ( #65, #574 ) ;
#687 = DIRECTION ( 'NONE',  ( 1.000000000000000000, 0.000000000000000000, 0.000000000000000000 ) ) ;
#688 = DIRECTION ( 'NONE',  ( 0.000000000000000000, 1.000000000000000000, 0.000000000000000000 ) ) ;
#689 = DIRECTION ( 'NONE',  ( -1.586032892321652236E-16, -0.000000000000000000, -1.000000000000000000 ) ) ;
#690 = VECTOR ( 'NONE', #343, 1000.000000000000000 ) ;
#691 = EDGE_CURVE ( 'NONE', #558, #601, #513, .T. ) ;
#692 = ORIENTED_EDGE ( 'NONE', *, *, #532, .T. ) ;
#693 = APPLICATION_PROTOCOL_DEFINITION ( 'draft international standard', 'automotive_design', 1998, #606 ) ;
#694 = APPLICATION_CONTEXT ( 'automotive_design' ) ;
#695 = CARTESIAN_POINT ( 'NONE',  ( -349.9999999999999432, 6.000000000000000000, -350.0000000000000000 ) ) ;
#696 = ORIENTED_EDGE ( 'NONE', *, *, #487, .F. ) ;
#697 = ORIENTED_EDGE ( 'NONE', *, *, #374, .T. ) ;
#698 = DIRECTION ( 'NONE',  ( -1.000000000000000000, -0.000000000000000000, -0.000000000000000000 ) ) ;
#699 = FACE_OUTER_BOUND ( 'NONE', #317, .T. ) ;
#700 = EDGE_LOOP ( 'NONE', ( #277, #353, #696, #723 ) ) ;
#701 = CONTEXT_DEPENDENT_SHAPE_REPRESENTATION ( #128, #504 ) ;
#702 = CARTESIAN_POINT ( 'NONE',  ( -349.9999999999999432, 6.000000000000000000, -350.0000000000000000 ) ) ;
#703 = ADVANCED_FACE ( 'NONE', ( #628 ), #21, .F. ) ;
#704 = ORIENTED_EDGE ( 'NONE', *, *, #362, .F. ) ;
#705 = VECTOR ( 'NONE', #581, 1000.000000000000000 ) ;
#706 = AXIS2_PLACEMENT_3D ( 'NONE', #519, #162, #400 ) ;
#707 = LINE ( 'NONE', #109, #618 ) ;
#708 = ORIENTED_EDGE ( 'NONE', *, *, #336, .F. ) ;
#709 = ITEM_DEFINED_TRANSFORMATION ( 'NONE', 'NONE', #216,  #422 ) ;
#710 = CARTESIAN_POINT ( 'NONE',  ( 17.50000000000001421, -17.50000000000000711, 900.0000000000000000 ) ) ;
#711 = FACE_OUTER_BOUND ( 'NONE', #499, .T. ) ;
#712 = ORIENTED_EDGE ( 'NONE', *, *, #130, .F. ) ;
#713 = LINE ( 'NONE', #657, #494 ) ;
#714 = STYLED_ITEM ( 'NONE', ( #392 ), #133 ) ;
#715 = CARTESIAN_POINT ( 'NONE',  ( 15.50000000000000000, 15.50000000000000355, 900.0000000000000000 ) ) ;
#716 = CARTESIAN_POINT ( 'NONE',  ( 350.0000000000001705, 6.000000000000000000, 350.0000000000000000 ) ) ;
#717 = ORIENTED_EDGE ( 'NONE', *, *, #134, .T. ) ;
#718 = ADVANCED_FACE ( 'NONE', ( #742 ), #210, .F. ) ;
#719 = ORIENTED_EDGE ( 'NONE', *, *, #315, .F. ) ;
#720 = VECTOR ( 'NONE', #767, 1000.000000000000000 ) ;
#721 = AXIS2_PLACEMENT_3D ( 'NONE', #196, #739, #66 ) ;
#722 = EDGE_CURVE ( 'NONE', #332, #103, #746, .T. ) ;
#723 = ORIENTED_EDGE ( 'NONE', *, *, #452, .T. ) ;
#724 = CARTESIAN_POINT ( 'NONE',  ( -349.9999999999999432, 6.000000000000000000, -350.0000000000000000 ) ) ;
#725 = DIRECTION ( 'NONE',  ( 0.000000000000000000, 1.000000000000000000, 0.000000000000000000 ) ) ;
#726 = CARTESIAN_POINT ( 'NONE',  ( -349.9999999999998295, 6.000000000000000000, 350.0000000000000000 ) ) ;
#727 = ORIENTED_EDGE ( 'NONE', *, *, #403, .F. ) ;
#728 = VECTOR ( 'NONE', #737, 1000.000000000000000 ) ;
#729 = VECTOR ( 'NONE', #404, 1000.000000000000000 ) ;
#730 = DIRECTION ( 'NONE',  ( 1.000000000000000000, 9.912705577010325549E-17, -0.000000000000000000 ) ) ;
#731 = ORIENTED_EDGE ( 'NONE', *, *, #293, .F. ) ;
#732 = PRODUCT_DEFINITION_FORMATION_WITH_SPECIFIED_SOURCE ( 'ANY', '', #323, .NOT_KNOWN. ) ;
#733 = CARTESIAN_POINT ( 'NONE',  ( 0.000000000000000000, 0.000000000000000000, 900.0000000000000000 ) ) ;
#734 = CARTESIAN_POINT ( 'NONE',  ( -349.9999999999998295, 6.000000000000000000, 350.0000000000000000 ) ) ;
#735 = LINE ( 'NONE', #265, #586 ) ;
#736 = EDGE_LOOP ( 'NONE', ( #127, #731, #704, #427 ) ) ;
#737 = DIRECTION ( 'NONE',  ( 2.238352872228138663E-16, -1.000000000000000000, 0.000000000000000000 ) ) ;
#738 = ADVANCED_FACE ( 'NONE', ( #711 ), #524, .T. ) ;
#739 = DIRECTION ( 'NONE',  ( 1.000000000000000000, 2.238352872228138663E-16, -0.000000000000000000 ) ) ;
#740 = ORIENTED_EDGE ( 'NONE', *, *, #227, .F. ) ;
#741 = CARTESIAN_POINT ( 'NONE',  ( -349.9999999999999432, 0.000000000000000000, -350.0000000000000000 ) ) ;
#742 = FACE_OUTER_BOUND ( 'NONE', #164, .T. ) ;
#743 = ORIENTED_EDGE ( 'NONE', *, *, #108, .T. ) ;
#744 = PRESENTATION_LAYER_ASSIGNMENT (  '', '', ( #335 ) ) ;
#745 = ORIENTED_EDGE ( 'NONE', *, *, #326, .T. ) ;
#746 = LINE ( 'NONE', #232, #607 ) ;
#747 = AXIS2_PLACEMENT_3D ( 'NONE', #474, #176, #651 ) ;
#748 = PLANE ( 'NONE',  #145 ) ;
#749 = APPLICATION_CONTEXT ( 'automotive_design' ) ;
#750 = CONTEXT_DEPENDENT_SHAPE_REPRESENTATION ( #222, #84 ) ;
#751 = ADVANCED_FACE ( 'NONE', ( #477 ), #599, .F. ) ;
#752 = DIRECTION ( 'NONE',  ( 1.000000000000000000, 0.000000000000000000, 0.000000000000000000 ) ) ;
#753 = SURFACE_SIDE_STYLE ('',( #29 ) ) ;
#754 = ORIENTED_EDGE ( 'NONE', *, *, #194, .T. ) ;
#755 = DIRECTION ( 'NONE',  ( 1.000000000000000000, 0.000000000000000000, 0.000000000000000000 ) ) ;
#756 = LINE ( 'NONE', #229, #248 ) ;
#757 = CARTESIAN_POINT ( 'NONE',  ( 0.000000000000000000, 6.000000000000000000, 0.000000000000000000 ) ) ;
#758 = CARTESIAN_POINT ( 'NONE',  ( -15.50000000000000000, 15.50000000000000355, 900.0000000000000000 ) ) ;
#759 = CARTESIAN_POINT ( 'NONE',  ( 350.0000000000000568, 0.000000000000000000, -350.0000000000000000 ) ) ;
#760 = CARTESIAN_POINT ( 'NONE',  ( 15.50000000000000711, -15.49999999999999289, 900.0000000000000000 ) ) ;
#761 = LINE ( 'NONE', #120, #559 ) ;
#762 = EDGE_CURVE ( 'NONE', #197, #246, #761, .T. ) ;
#763 = ADVANCED_BREP_SHAPE_REPRESENTATION ( '', ( #133, #422 ), #675 ) ;
#764 = CARTESIAN_POINT ( 'NONE',  ( -17.49999999999999289, 17.49999999999999645, 900.0000000000000000 ) ) ;
#765 = EDGE_CURVE ( 'NONE', #225, #322, #237, .T. ) ;
#766 = VECTOR ( 'NONE', #512, 1000.000000000000000 ) ;
#767 = DIRECTION ( 'NONE',  ( -0.000000000000000000, -0.000000000000000000, -1.000000000000000000 ) ) ;
#768 = AXIS2_PLACEMENT_3D ( 'NONE', #617, #544, #556 ) ;
#769 = VECTOR ( 'NONE', #334, 1000.000000000000000 ) ;
#770 = NEXT_ASSEMBLY_USAGE_OCCURRENCE ( 'NAUO1', ' ', ' ', #40, #83, $ ) ;
#771 = NEXT_ASSEMBLY_USAGE_OCCURRENCE ( 'NAUO2', ' ', ' ', #40, #189, $ ) ;
#772 = NEXT_ASSEMBLY_USAGE_OCCURRENCE ( 'NAUO3', ' ', ' ', #40, #189, $ ) ;
#773 = NEXT_ASSEMBLY_USAGE_OCCURRENCE ( 'NAUO4', ' ', ' ', #40, #189, $ ) ;
#774 = NEXT_ASSEMBLY_USAGE_OCCURRENCE ( 'NAUO5', ' ', ' ', #40, #189, $ ) ;
#775 = NEXT_ASSEMBLY_USAGE_OCCURRENCE ( 'NAUO6', ' ', ' ', #40, #626, $ ) ;
ENDSEC;
END-ISO-10303-21;
